<?xml version="1.0" standalone="no"?>
<!DOCTYPE svg PUBLIC "-//W3C//DTD SVG 20010904//EN"
 "http://www.w3.org/TR/2001/REC-SVG-20010904/DTD/svg10.dtd">
<svg version="1.0" xmlns="http://www.w3.org/2000/svg"
 width="1280.000000pt" height="640.000000pt" viewBox="0 0 1280.000000 640.000000"
 preserveAspectRatio="xMidYMid meet">
<metadata>
Created by potrace 1.15, written by Peter Selinger 2001-2017
</metadata>
<g transform="translate(0.000000,640.000000) scale(0.100000,-0.100000)"
fill="#000000" stroke="none">
<path d="M1275 5163 c-201 -10 -278 -23 -382 -68 -154 -66 -229 -114 -320
-207 -113 -115 -217 -301 -353 -635 -162 -395 -177 -455 -200 -840 -14 -246
-13 -465 6 -590 19 -133 98 -395 171 -568 76 -178 220 -408 339 -539 83 -92
104 -109 205 -166 140 -78 329 -147 564 -206 249 -63 456 -93 710 -104 180 -7
235 -6 388 11 309 33 615 98 1062 226 220 62 432 124 470 138 244 83 708 246
752 264 29 11 184 78 345 147 161 70 338 146 393 169 55 24 159 69 230 100
309 136 1032 394 1710 610 608 193 608 194 645 228 19 18 47 52 63 75 25 38
27 50 27 136 l0 94 158 67 c367 156 970 334 1358 401 444 76 958 20 1649 -181
243 -70 469 -163 822 -336 177 -86 184 -91 243 -159 33 -39 75 -84 93 -99 29
-26 37 -27 87 -22 61 8 168 62 212 108 15 16 38 63 52 108 30 89 29 157 -2
289 -14 63 -22 77 -80 140 -36 39 -79 81 -97 93 -44 30 -145 55 -235 57 -45 1
-87 8 -105 18 -16 9 -129 59 -250 111 -235 101 -511 198 -770 270 -664 185
-886 216 -1434 197 -174 -6 -345 -15 -381 -20 -36 -5 -108 -14 -160 -20 -263
-31 -771 -144 -1035 -231 -232 -76 -357 -88 -445 -44 -28 14 -67 25 -88 25
-36 0 -900 -286 -2002 -662 -184 -63 -373 -126 -420 -140 -47 -15 -220 -69
-385 -122 -316 -100 -348 -109 -808 -231 -220 -57 -343 -84 -520 -111 -231
-36 -232 -36 -307 -19 -83 18 -110 38 -162 117 l-30 48 12 123 c17 179 24 727
12 892 -12 149 -31 237 -82 377 l-31 87 -125 103 c-136 113 -273 197 -434 265
-168 72 -198 80 -554 159 -357 78 -360 78 -581 67z"/>
</g>
</svg>
